# xmcd CD database file
#
# Track frame offsets:
#	150
#	34417
#	46444
#	57884
#	77956
#	95533
#	111712
#	126013
#	136614
#	156075
#	166878
#
# Disc length: 2375 seconds
#
# Revision: 1
# Processed by: cddbd v1.4PL0 Copyright (c) Steve Scherf et al.
# Submitted via: CDex 1.40Beta9
#
DISCID=9309450b
DTITLE=Ohio Players - Street Party
DYEAR=1999
DGENRE=Blues
TTITLE0=Summertime
TTITLE1=Bad Bargain
TTITLE2=The Man That I Am
TTITLE3=You To Me Are Everything
TTITLE4=Cold Cold World
TTITLE5=Here Today Gone Tomorrow
TTITLE6=Mother In Law
TTITLE7=Stop Lying To Yourself
TTITLE8=Over The Rainbow
TTITLE9=Street Party
TTITLE10=Lonely Street
EXTD=YEAR: 1999 ID3G: 0
EXTT0=
EXTT1=
EXTT2=
EXTT3=
EXTT4=
EXTT5=
EXTT6=
EXTT7=
EXTT8=
EXTT9=
EXTT10=
PLAYORDER=
